HIERARCHY
ROOT Hips
{
	OFFSET 0.000000 0.000000 0.000000
	CHANNELS 6 Xposition Yposition Zposition Xrotation Yrotation Zrotation
	JOINT LeftUpLeg_virtual
	{
		OFFSET 0.000000 0.000000 0.000000
		CHANNELS 3 Xrotation Yrotation Zrotation
		JOINT LeftUpLeg
		{
			OFFSET 10.205400 -3.823500 0.155100
			CHANNELS 3 Xrotation Yrotation Zrotation
			JOINT LeftLeg
			{
				OFFSET 0.708757 -12.982077 0.567790
				CHANNELS 3 Xrotation Yrotation Zrotation
				JOINT LeftFoot
				{
					OFFSET -0.708756 -10.717838 -2.184338
					CHANNELS 3 Xrotation Yrotation Zrotation
					JOINT LeftToeBase
					{
						OFFSET 0.108149 -7.191104 7.560241
						CHANNELS 3 Xrotation Yrotation Zrotation
						JOINT LeftToe_End
						{
							OFFSET 0.070230 0.081724 4.490308
							CHANNELS 3 Xrotation Yrotation Zrotation
							End Site
							{
								OFFSET 0 0 0
							}
						}
					}
				}
			}
		}
	}
	JOINT RightUpLeg_virtual
	{
		OFFSET 0.000000 0.000000 0.000000
		CHANNELS 3 Xrotation Yrotation Zrotation
		JOINT RightUpLeg
		{
			OFFSET -10.205400 -3.823500 0.005500
			CHANNELS 3 Xrotation Yrotation Zrotation
			JOINT RightLeg
			{
				OFFSET -0.708756 -12.982134 0.610632
				CHANNELS 3 Xrotation Yrotation Zrotation
				JOINT RightFoot
				{
					OFFSET 0.708754 -10.717769 -1.945823
					CHANNELS 3 Xrotation Yrotation Zrotation
					JOINT RightToeBase
					{
						OFFSET -0.108140 -7.191069 7.372968
						CHANNELS 3 Xrotation Yrotation Zrotation
						JOINT RightToe_End
						{
							OFFSET -0.070227 0.081735 4.479403
							CHANNELS 3 Xrotation Yrotation Zrotation
							End Site
							{
								OFFSET 0 0 0
							}
						}
					}
				}
			}
		}
	}
	JOINT Spine_virtual
	{
		OFFSET 0.000000 0.000000 0.000000
		CHANNELS 3 Xrotation Yrotation Zrotation
		JOINT Spine
		{
			OFFSET 0.000000 6.876099 0.125700
			CHANNELS 3 Xrotation Yrotation Zrotation
			JOINT Spine1
			{
				OFFSET 0.000000 5.730043 0.104720
				CHANNELS 3 Xrotation Yrotation Zrotation
				JOINT Spine1_split
				{
					OFFSET 0.000000 5.730043 0.104720
					CHANNELS 3 Xrotation Yrotation Zrotation
					JOINT Spine2
					{
						OFFSET 0.000000 5.730043 0.104720
						CHANNELS 3 Xrotation Yrotation Zrotation
						JOINT Neck_virtual
						{
							OFFSET 0.000000 0.000000 0.000000
							CHANNELS 3 Xrotation Yrotation Zrotation
							JOINT Neck
							{
								OFFSET 0.000000 10.314075 0.188496
								CHANNELS 3 Xrotation Yrotation Zrotation
								JOINT Head
								{
									OFFSET 0.000000 7.643700 -2.377400
									CHANNELS 3 Xrotation Yrotation Zrotation
									JOINT HeadTop_End
									{
										OFFSET 0.000000 43.788605 -13.619600
										CHANNELS 3 Xrotation Yrotation Zrotation
										End Site
										{
											OFFSET 0 0 0
										}
									}
								}
							}
						}
						JOINT LeftShoulder_virtual
						{
							OFFSET 0.000000 0.000000 0.000000
							CHANNELS 3 Xrotation Yrotation Zrotation
							JOINT LeftShoulder
							{
								OFFSET 2.196100 4.412489 0.087492
								CHANNELS 3 Xrotation Yrotation Zrotation
								JOINT LeftShoulder_split
								{
									OFFSET 2.196100 4.412489 0.087492
									CHANNELS 3 Xrotation Yrotation Zrotation
									JOINT LeftArm
									{
										OFFSET 8.771219 -2.981674 -0.026999
										CHANNELS 3 Xrotation Yrotation Zrotation
										JOINT LeftForeArm
										{
											OFFSET 8.512804 0.000000 -0.000000
											CHANNELS 3 Xrotation Yrotation Zrotation
											JOINT LeftHand
											{
												OFFSET 18.484802 0.000000 -0.000000
												CHANNELS 3 Xrotation Yrotation Zrotation
												End Site
												{
													OFFSET 0 0 0
												}
											}
										}
									}
								}
							}
						}
						JOINT RightShoulder_virtual
						{
							OFFSET 0.000000 0.000000 0.000000
							CHANNELS 3 Xrotation Yrotation Zrotation
							JOINT RightShoulder
							{
								OFFSET -2.196100 4.412496 0.070690
								CHANNELS 3 Xrotation Yrotation Zrotation
								JOINT RightShoulder_split
								{
									OFFSET -2.196100 4.412496 0.070690
									CHANNELS 3 Xrotation Yrotation Zrotation
									JOINT RightArm
									{
										OFFSET -8.771282 -2.981682 -0.094208
										CHANNELS 3 Xrotation Yrotation Zrotation
										JOINT RightForeArm
										{
											OFFSET -8.494598 0.000000 0.000000
											CHANNELS 3 Xrotation Yrotation Zrotation
											JOINT RightHand
											{
												OFFSET -18.483803 0.000000 0.000001
												CHANNELS 3 Xrotation Yrotation Zrotation
												End Site
												{
													OFFSET 0 0 0
												}
											}
										}
									}
								}
							}
						}
					}
				}
			}
		}
	}
}
MOTION
Frames: 5
Frame Time: 0.03333333
2.287886 28.203680 -1.279558 0.000000 0.000000 0.000000 2.371942 -53.895845 4.391479 -39.568911 2.187485 24.589026 46.200643 -2.467691 1.261307 -10.290359 -8.857297 -23.459635 0.407861 0.372498 0.267026 0.000000 0.000000 0.000000 0.890283 -54.438250 4.101088 -27.369176 -22.532446 -45.304225 44.661060 11.867343 -2.247492 -23.651541 -7.172280 19.884091 3.046030 1.006998 -0.441000 0.000000 0.000000 0.000000 4.197092 -50.938246 5.133872 9.474152 10.915864 -1.854453 3.537893 4.708536 -1.444672 0.328622 -0.102375 -0.080721 0.000000 0.000000 0.000000 3.826705 4.862493 -1.143963 -2.836656 2.997508 3.055351 -5.045442 40.572857 -6.872578 0.000000 0.000000 0.000000 4.341360 4.741764 -1.911268 0.370829 -8.713380 -15.831798 -6.049108 2.234700 1.264697 -11.625154 -39.278331 -19.692914 -6.238230 -66.325727 -3.088638 0.000000 0.000000 0.000000 5.610198 5.251652 -1.498205 -4.870752 20.565964 -19.409678 1.847157 -5.139275 -4.305257 -32.090848 28.105230 30.056401 -127.517938 88.181021 126.701840 0.000000 0.000000 0.000000 
2.490916 28.372643 -1.339909 0.000000 0.000000 0.000000 2.207425 -55.021661 4.422868 -39.272659 3.224034 24.975464 45.211256 -2.791691 1.145615 -9.698485 -8.057617 -23.754647 0.323019 0.407634 0.051302 0.000000 0.000000 0.000000 0.968157 -55.465531 4.084892 -27.838656 -22.341824 -44.556681 43.659993 11.552102 -2.035407 -22.078151 -6.664154 19.427078 3.509752 0.949291 -0.380983 0.000000 0.000000 0.000000 3.680139 -51.922849 4.745551 11.013872 11.102636 -2.363903 3.615132 4.456123 -1.589022 0.254089 0.006390 -0.171869 0.000000 0.000000 0.000000 3.628090 4.679205 -1.172607 -2.755083 2.843563 3.444035 -8.018558 40.042305 -6.250949 0.000000 0.000000 0.000000 4.829016 4.303198 -1.881724 0.732011 -8.919522 -15.821020 -7.313469 2.496334 0.930107 -20.767856 -38.300064 -25.566472 -4.786062 -67.301699 -1.872954 0.000000 0.000000 0.000000 5.794860 5.056997 -1.279050 -1.698959 20.660865 -14.159693 1.742139 -4.541424 -4.009083 -22.504051 32.470726 25.192401 -170.230253 84.303946 169.487183 0.000000 0.000000 0.000000 
2.648285 28.590584 -1.370716 0.000000 0.000000 0.000000 2.206026 -56.988073 4.313764 -38.535343 4.751359 25.858912 43.822016 -3.359573 1.069056 -9.839896 -6.881853 -24.077540 0.094853 0.392930 -0.038199 0.000000 0.000000 0.000000 1.074069 -57.383971 3.846599 -27.981128 -22.253250 -43.220423 41.593243 11.231044 -1.717293 -20.380060 -6.065181 19.128150 3.724558 0.817511 -0.283497 0.000000 0.000000 0.000000 3.126419 -53.834035 4.121523 12.524233 10.851122 -3.068375 3.646614 4.045660 -1.813106 0.436793 -0.028003 -0.081509 0.000000 0.000000 0.000000 3.486125 4.252757 -1.363998 -2.958418 2.619030 3.785617 -10.290602 40.374437 -5.585872 0.000000 0.000000 0.000000 5.180396 3.727027 -1.922018 1.132279 -8.682122 -14.879632 -8.338438 2.638499 0.615591 -29.656780 -36.342453 -29.948156 -2.540739 -68.193442 0.019124 0.000000 0.000000 0.000000 5.792713 4.634684 -1.332810 0.712754 20.136658 -10.243247 1.911053 -3.011813 -3.200735 -14.373348 34.594143 18.544006 -174.635274 81.439091 173.737814 0.000000 0.000000 0.000000 
2.763097 28.841671 -1.365660 0.000000 0.000000 0.000000 2.157746 -59.853549 3.920015 -37.301678 6.566267 27.220257 42.368664 -4.115930 1.016249 -10.489170 -5.383196 -24.379406 -0.267830 0.330964 -0.036733 0.000000 0.000000 0.000000 1.153402 -60.138600 3.367732 -27.755230 -22.223562 -41.279351 38.538694 10.956744 -1.326782 -18.934649 -5.332266 18.847852 3.833431 0.617281 -0.129336 0.000000 0.000000 0.000000 2.426922 -56.492986 3.184824 13.759028 10.298464 -3.948687 3.676751 3.622924 -2.072117 0.547496 0.123001 0.048167 0.000000 0.000000 0.000000 3.423830 3.723888 -1.627531 -3.451543 2.297055 4.138799 -11.556860 41.468561 -4.857058 0.000000 0.000000 0.000000 5.365841 3.169924 -1.997459 1.472455 -8.282164 -13.110658 -9.164493 2.549098 0.414334 -36.852648 -33.640720 -31.223534 0.021591 -69.818788 2.172132 0.000000 0.000000 0.000000 5.677547 4.127990 -1.593742 2.448873 19.395132 -7.926158 1.915015 -1.265680 -1.882464 -9.732173 37.506044 12.034405 -173.422273 82.064074 172.132324 0.000000 0.000000 0.000000 
2.866259 29.103085 -1.337784 0.000000 0.000000 0.000000 2.194536 -63.643047 3.384106 -35.666678 8.500707 28.937288 41.170724 -4.909590 0.981511 -11.433750 -3.496671 -24.432171 -0.487638 0.232265 -0.081489 0.000000 0.000000 0.000000 1.153329 -63.658852 2.672969 -27.170991 -22.139305 -38.810217 34.818798 10.734350 -0.881028 -17.994960 -4.402453 18.412496 4.032336 0.394921 0.069761 0.000000 0.000000 0.000000 1.581321 -59.918026 1.968304 14.525079 9.528572 -4.953870 3.751173 3.279577 -2.280176 0.918228 0.252102 0.099112 0.000000 0.000000 0.000000 3.476471 3.216826 -1.861697 -4.215074 2.095469 4.432706 -11.817268 43.366592 -4.065351 0.000000 0.000000 0.000000 5.415744 2.744251 -2.067295 1.706978 -7.875025 -10.783017 -9.559562 2.360929 0.671687 -41.175140 -30.527565 -28.886981 2.093969 -72.490369 3.929161 0.000000 0.000000 0.000000 5.516523 3.638891 -1.909432 3.488112 18.420998 -7.189541 1.257213 -0.261215 -0.024590 -9.169509 43.303386 6.869455 -165.755441 84.974336 163.920606 0.000000 0.000000 0.000000 
